<svg viewBox="0 0 32 32" width="64" height="64" xmlns="http://www.w3.org/2000/svg"><circle style="display:inline;opacity:1;fill:#ff8888;fill-opacity:1;stroke:none;stroke-opacity:1" cx="16" cy="16" r="16"/><path style="fill:#fff;fill-opacity:1" d="M15.676 26.213c-2.252-.191-6.038-2.711-6.038-2.711l1.305-3.541s3.036 2.648 4.798 2.488c1.762-.16 2.742-1.627 2.383-3.381-.751-3.731-6.951-3.954-6.951-7.431s2.513-5.774 4.504-5.869c3.166-.16 4.83 1.404 4.83 1.404-.163.223-1.077 2.105-1.077 2.105s-3.33-1.18-3.884 1.595c-.751 3.7 6.723 3.349 6.854 8.325.164 5.646-4.504 7.209-6.723 7.018z"/></svg>